# xmcd
#
# Track frame offsets:
#	182
#	14650
#	30612
#	45380
#	59812
#	73987
#	87780
#	102257
#	116700
#	130802
#	145387
#	160062
#	181350
#	204300
#	228450
#	248600
#	270450
#
# Disc length: 3899 seconds
#
# Revision: 1
# Processed by: cddbd v1.5.1PL2 Copyright (c) Steve Scherf et al.
# Submitted via: audiograbber 1.83.01
#
DISCID=f10f3911
DTITLE=Country Classics - Country Classics
DYEAR=1900
DGENRE=Country
TTITLE0=Cotton Eye Joe
TTITLE1=Old Pop In An Oak
TTITLE2=Riders In The Sky
TTITLE3=Green Green Grass Of Home
TTITLE4=Bonanza
TTITLE5=Jambalaya
TTITLE6=Guitar On My Knee
TTITLE7=Ring Of Fire
TTITLE8=Cork And Kerry Mountains
TTITLE9=Jim Beems Body
TTITLE10=Cotton Balls
TTITLE11=The American
TTITLE12=Riders In The Sky (Remix)
TTITLE13=Old Pop In An Oak (Remix)
TTITLE14=Jim Beems Body (Remix)
TTITLE15=Cotton Balls (Remix)
TTITLE16=Cotton Eye Joe (Remix)
EXTD=
EXTT0=
EXTT1=
EXTT2=
EXTT3=
EXTT4=
EXTT5=
EXTT6=
EXTT7=
EXTT8=
EXTT9=
EXTT10=
EXTT11=
EXTT12=
EXTT13=
EXTT14=
EXTT15=
EXTT16=
PLAYORDER=
